<svg xmlns="http://www.w3.org/2000/svg" viewBox="0 0 20 20" id="like">
  <path d="M16.4825,8.5286a2.49,2.49,0,0,0-1.9463-.93H11.7667l.5058-1.976a1.8624,1.8624,0,0,0-.9658-2.1162,1.8435,1.8435,0,0,0-2.4033.6811L6.7891,7.5984H6.1338A1.5023,1.5023,0,0,0,4.7511,6.68H4.463a1.5016,1.5016,0,0,0-1.5,1.5v7.0127a1.5016,1.5016,0,0,0,1.5,1.5h.2881a1.4955,1.4955,0,0,0,1.28-.7285h7.777a2.5136,2.5136,0,0,0,2.4434-1.9712l.7285-3.3657A2.4879,2.4879,0,0,0,16.4825,8.5286ZM4.7511,15.6922H4.463a.5006.5006,0,0,1-.5-.5V8.18a.5006.5006,0,0,1,.5-.5h.2881a.5006.5006,0,0,1,.5.5v7.0127A.5006.5006,0,0,1,4.7511,15.6922ZM16.003,10.4153l-.7285,3.3653a1.5093,1.5093,0,0,1-1.4668,1.1831H6.2511V8.5984h.8164a.4988.4988,0,0,0,.4248-.2368L9.753,4.7142a.8526.8526,0,0,1,1.5508.66l-.665,2.6a.5.5,0,0,0,.4843.624h3.4131a1.5,1.5,0,0,1,1.4668,1.8169Z"></path>
</svg>